<svg width="40" height="41" viewBox="0 0 40 41" fill="none" xmlns="http://www.w3.org/2000/svg">
<circle cx="20" cy="20.7636" r="20" fill="#6D00C0" fill-opacity="0.15"/>
<g clip-path="url(#clip0_1_73)">
<path d="M13.25 14.0136H26.75C26.9489 14.0136 27.1397 14.0927 27.2803 14.2333C27.421 14.374 27.5 14.5647 27.5 14.7636V26.7636C27.5 26.9626 27.421 27.1533 27.2803 27.294C27.1397 27.4346 26.9489 27.5136 26.75 27.5136H13.25C13.0511 27.5136 12.8603 27.4346 12.7197 27.294C12.579 27.1533 12.5 26.9626 12.5 26.7636V14.7636C12.5 14.5647 12.579 14.374 12.7197 14.2333C12.8603 14.0927 13.0511 14.0136 13.25 14.0136ZM26 20.7636H14V26.0136H26V20.7636ZM26 17.7636V15.5136H14V17.7636H26Z" fill="#6D00C0"/>
</g>
<defs>
<clipPath id="clip0_1_73">
<rect width="18" height="18" fill="white" transform="translate(11 11.7636)"/>
</clipPath>
</defs>
</svg>
