<svg width="15" height="15" viewBox="0 0 15 15" fill="none" xmlns="http://www.w3.org/2000/svg">
<g clip-path="url(#clip0_1_134)">
<path d="M4.94063 3.84987V2.09987C4.94063 1.94516 5.00209 1.79679 5.11149 1.68739C5.22088 1.578 5.36926 1.51654 5.52397 1.51654H12.524C12.6787 1.51654 12.827 1.578 12.9364 1.68739C13.0458 1.79679 13.1073 1.94516 13.1073 2.09987V10.2665C13.1073 10.4212 13.0458 10.5696 12.9364 10.679C12.827 10.7884 12.6787 10.8499 12.524 10.8499H10.774V12.5999C10.774 12.9219 10.5115 13.1832 10.1865 13.1832H3.19472C3.11779 13.1837 3.04153 13.1689 2.97032 13.1398C2.89911 13.1107 2.83435 13.0678 2.77977 13.0136C2.72518 12.9594 2.68185 12.895 2.65225 12.824C2.62265 12.753 2.60738 12.6768 2.6073 12.5999L2.60905 4.43321C2.60905 4.11121 2.87155 3.84987 3.19647 3.84987H4.94063ZM3.77572 5.01654L3.77397 12.0165H9.6073V5.01654H3.77572ZM6.1073 3.84987H10.774V9.68321H11.9406V2.68321H6.1073V3.84987Z" fill="#808080"/>
</g>
<defs>
<clipPath id="clip0_1_134">
<rect width="14" height="14" fill="white" transform="translate(0.8573 0.349854)"/>
</clipPath>
</defs>
</svg>
