<svg width="18" height="19" viewBox="0 0 18 19" fill="none" xmlns="http://www.w3.org/2000/svg">
<g clip-path="url(#clip0_1_51)">
<path d="M7.83113 18.7636V16.6695C6.35288 16.6031 4.91963 16.206 4.08038 15.7211L4.74301 13.1398C5.67001 13.6466 6.97051 14.1095 8.40545 14.1095C9.66263 14.1095 10.5233 13.6246 10.5233 12.7426C10.5233 11.904 9.81732 11.3741 8.18438 10.8223C5.82413 10.0286 4.21313 8.92552 4.21313 6.78633C4.21313 4.84458 5.5817 3.32302 7.94195 2.85952V0.763641H10.1031V2.70539C11.5813 2.77177 12.5747 3.07889 13.302 3.4327L12.6624 5.9257C12.0893 5.68327 11.0745 5.17477 9.48488 5.17477C8.05163 5.17477 7.58813 5.79239 7.58813 6.41058C7.58813 7.13789 8.36045 7.60139 10.2358 8.30733C12.8599 9.23433 13.9196 10.4465 13.9196 12.4333C13.9196 14.3964 12.5291 16.0726 9.99282 16.5142V18.7636H7.83113Z" fill="#6D00C0"/>
</g>
<defs>
<clipPath id="clip0_1_51">
<rect width="18" height="18" fill="white" transform="translate(0 0.763641)"/>
</clipPath>
</defs>
</svg>
