<svg width="40" height="41" viewBox="0 0 40 41" fill="none" xmlns="http://www.w3.org/2000/svg">
<circle cx="20" cy="20.7636" r="20" fill="#6D00C0" fill-opacity="0.15"/>
<g clip-path="url(#clip0_1_68)">
<path d="M18.8311 29.7636V27.6695C17.3529 27.6031 15.9196 27.206 15.0804 26.7211L15.743 24.1398C16.67 24.6466 17.9705 25.1095 19.4054 25.1095C20.6626 25.1095 21.5233 24.6246 21.5233 23.7426C21.5233 22.904 20.8173 22.3741 19.1844 21.8223C16.8241 21.0286 15.2131 19.9255 15.2131 17.7863C15.2131 15.8446 16.5817 14.323 18.9419 13.8595V11.7636H21.1031V13.7054C22.5813 13.7718 23.5747 14.0789 24.302 14.4327L23.6624 16.9257C23.0893 16.6833 22.0745 16.1748 20.4849 16.1748C19.0516 16.1748 18.5881 16.7924 18.5881 17.4106C18.5881 18.1379 19.3604 18.6014 21.2358 19.3073C23.8599 20.2343 24.9196 21.4465 24.9196 23.4333C24.9196 25.3964 23.5291 27.0726 20.9928 27.5142V29.7636H18.8311Z" fill="#6D00C0"/>
</g>
<defs>
<clipPath id="clip0_1_68">
<rect width="18" height="18" fill="white" transform="translate(11 11.7636)"/>
</clipPath>
</defs>
</svg>
