<svg width="61" height="61" viewBox="0 0 61 61" fill="none" xmlns="http://www.w3.org/2000/svg">
<circle cx="30.6686" cy="30.4941" r="30" fill="#6D00C0"/>
<path d="M36.4246 35.1461C36.4246 36.0421 36.2006 36.9008 35.7526 37.7221C35.3046 38.5248 34.6419 39.1968 33.7646 39.7381C32.9059 40.2794 31.8699 40.5874 30.6566 40.6621V42.9301H29.1446V40.6621C27.4459 40.5128 26.0646 39.9714 25.0006 39.0381C23.9366 38.0861 23.3952 36.8821 23.3766 35.4261H26.0926C26.1672 36.2101 26.4566 36.8914 26.9606 37.4701C27.4832 38.0488 28.2112 38.4128 29.1446 38.5621V31.5621C27.8939 31.2448 26.8859 30.9181 26.1206 30.5821C25.3552 30.2461 24.7019 29.7234 24.1606 29.0141C23.6192 28.3048 23.3486 27.3528 23.3486 26.1581C23.3486 24.6461 23.8712 23.3954 24.9166 22.4061C25.9806 21.4168 27.3899 20.8661 29.1446 20.7541V18.4301H30.6566V20.7541C32.2432 20.8848 33.5219 21.3981 34.4926 22.2941C35.4632 23.1714 36.0232 24.3194 36.1726 25.7381H33.4566C33.3632 25.0848 33.0739 24.4968 32.5886 23.9741C32.1032 23.4328 31.4592 23.0781 30.6566 22.9101V29.7421C31.8886 30.0594 32.8872 30.3861 33.6526 30.7221C34.4366 31.0394 35.0899 31.5528 35.6126 32.2621C36.1539 32.9714 36.4246 33.9328 36.4246 35.1461ZM25.9526 26.0181C25.9526 26.9328 26.2232 27.6328 26.7646 28.1181C27.3059 28.6034 28.0992 29.0048 29.1446 29.3221V22.8541C28.1739 22.9474 27.3992 23.2648 26.8206 23.8061C26.2419 24.3288 25.9526 25.0661 25.9526 26.0181ZM30.6566 38.5901C31.6646 38.4781 32.4486 38.1141 33.0086 37.4981C33.5872 36.8821 33.8766 36.1448 33.8766 35.2861C33.8766 34.3714 33.5966 33.6714 33.0366 33.1861C32.4766 32.6821 31.6832 32.2808 30.6566 31.9821V38.5901Z" fill="white"/>
</svg>
