<svg width="40" height="41" viewBox="0 0 40 41" fill="none" xmlns="http://www.w3.org/2000/svg">
<circle cx="20" cy="20.7636" r="20" fill="#6D00C0" fill-opacity="0.15"/>
<g clip-path="url(#clip0_1_93)">
<path d="M14.75 18.5136C14.9489 18.5136 15.1397 18.5927 15.2803 18.7333C15.421 18.874 15.5 19.0647 15.5 19.2636C16.6784 19.2619 17.8227 19.6583 18.7475 20.3886H20.375C21.3748 20.3886 22.2725 20.8236 22.8905 21.5136H25.25C25.9589 21.5134 26.6534 21.7142 27.2529 22.0927C27.8524 22.4711 28.3323 23.0118 28.637 23.6519C26.8633 25.9926 23.9915 27.5136 20.75 27.5136C18.6575 27.5136 16.8875 27.0614 15.455 26.2701C15.4025 26.4149 15.3067 26.54 15.1805 26.6283C15.0543 26.7167 14.904 26.7639 14.75 26.7636H12.5C12.3011 26.7636 12.1103 26.6846 11.9697 26.544C11.829 26.4033 11.75 26.2126 11.75 26.0136V19.2636C11.75 19.0647 11.829 18.874 11.9697 18.7333C12.1103 18.5927 12.3011 18.5136 12.5 18.5136H14.75ZM15.5008 20.7636L15.5 24.5301L15.5338 24.5541C16.88 25.4991 18.6335 26.0136 20.75 26.0136C23.003 26.0136 25.0992 25.1466 26.6262 23.6661L26.726 23.5664L26.636 23.4914C26.2818 23.214 25.8526 23.0494 25.4037 23.0189L25.25 23.0136H23.6667C23.7207 23.2551 23.75 23.5056 23.75 23.7636V24.5136H17V23.0136L22.0925 23.0129L22.067 22.9544C21.9233 22.654 21.7022 22.3974 21.4264 22.2107C21.1507 22.0241 20.8302 21.9142 20.498 21.8924L20.375 21.8886H18.1775C17.829 21.5322 17.4127 21.249 16.9531 21.0558C16.4936 20.8626 16 20.7633 15.5015 20.7636H15.5008ZM14 20.0136H13.25V25.2636H14V20.0136ZM24.5 15.5136C25.0967 15.5136 25.669 15.7507 26.091 16.1727C26.5129 16.5946 26.75 17.1669 26.75 17.7636C26.75 18.3604 26.5129 18.9327 26.091 19.3546C25.669 19.7766 25.0967 20.0136 24.5 20.0136C23.9033 20.0136 23.331 19.7766 22.909 19.3546C22.4871 18.9327 22.25 18.3604 22.25 17.7636C22.25 17.1669 22.4871 16.5946 22.909 16.1727C23.331 15.7507 23.9033 15.5136 24.5 15.5136ZM24.5 17.0136C24.3011 17.0136 24.1103 17.0927 23.9697 17.2333C23.829 17.374 23.75 17.5647 23.75 17.7636C23.75 17.9626 23.829 18.1533 23.9697 18.294C24.1103 18.4346 24.3011 18.5136 24.5 18.5136C24.6989 18.5136 24.8897 18.4346 25.0303 18.294C25.171 18.1533 25.25 17.9626 25.25 17.7636C25.25 17.5647 25.171 17.374 25.0303 17.2333C24.8897 17.0927 24.6989 17.0136 24.5 17.0136ZM19.25 13.2636C19.8467 13.2636 20.419 13.5007 20.841 13.9227C21.2629 14.3446 21.5 14.9169 21.5 15.5136C21.5 16.1104 21.2629 16.6827 20.841 17.1046C20.419 17.5266 19.8467 17.7636 19.25 17.7636C18.6533 17.7636 18.081 17.5266 17.659 17.1046C17.2371 16.6827 17 16.1104 17 15.5136C17 14.9169 17.2371 14.3446 17.659 13.9227C18.081 13.5007 18.6533 13.2636 19.25 13.2636ZM19.25 14.7636C19.0511 14.7636 18.8603 14.8427 18.7197 14.9833C18.579 15.124 18.5 15.3147 18.5 15.5136C18.5 15.7126 18.579 15.9033 18.7197 16.044C18.8603 16.1846 19.0511 16.2636 19.25 16.2636C19.4489 16.2636 19.6397 16.1846 19.7803 16.044C19.921 15.9033 20 15.7126 20 15.5136C20 15.3147 19.921 15.124 19.7803 14.9833C19.6397 14.8427 19.4489 14.7636 19.25 14.7636Z" fill="#6D00C0"/>
</g>
<defs>
<clipPath id="clip0_1_93">
<rect width="18" height="18" fill="white" transform="translate(11 11.7636)"/>
</clipPath>
</defs>
</svg>
