<svg width="25" height="24" viewBox="0 0 25 24" fill="none" xmlns="http://www.w3.org/2000/svg">
<g clip-path="url(#clip0_1_146)">
<path d="M6.955 19L2.5 22.5V4C2.5 3.73478 2.60536 3.48043 2.79289 3.29289C2.98043 3.10536 3.23478 3 3.5 3H21.5C21.7652 3 22.0196 3.10536 22.2071 3.29289C22.3946 3.48043 22.5 3.73478 22.5 4V18C22.5 18.2652 22.3946 18.5196 22.2071 18.7071C22.0196 18.8946 21.7652 19 21.5 19H6.955ZM6.263 17H20.5V5H4.5V18.385L6.263 17ZM8.5 10H16.5V12H8.5V10Z" fill="#808080"/>
</g>
<defs>
<clipPath id="clip0_1_146">
<rect width="24" height="24" fill="white" transform="translate(0.5)"/>
</clipPath>
</defs>
</svg>
