<svg width="41" height="41" viewBox="0 0 41 41" fill="none" xmlns="http://www.w3.org/2000/svg">
<circle cx="20.5" cy="20.7636" r="20" fill="#6D00C0" fill-opacity="0.15"/>
<g clip-path="url(#clip0_1_95)">
<path d="M21.34 24.5309L18.1908 22.8134C17.7796 23.2529 17.2457 23.5587 16.6586 23.6908C16.0714 23.823 15.458 23.7754 14.8982 23.5544C14.3384 23.3334 13.858 22.9491 13.5194 22.4515C13.1809 21.9538 12.9998 21.3659 12.9998 20.764C12.9998 20.1621 13.1809 19.5742 13.5194 19.0766C13.858 18.5789 14.3384 18.1946 14.8982 17.9736C15.458 17.7526 16.0714 17.7051 16.6586 17.8372C17.2457 17.9694 17.7796 18.2751 18.1908 18.7146L21.3408 16.9971C21.1619 16.2892 21.2474 15.5403 21.5812 14.8909C21.915 14.2415 22.4742 13.7361 23.154 13.4695C23.8338 13.2029 24.5874 13.1934 25.2737 13.4427C25.96 13.692 26.5318 14.1831 26.882 14.8238C27.2321 15.4646 27.3365 16.2111 27.1757 16.9233C27.0148 17.6355 26.5997 18.2647 26.0082 18.6927C25.4166 19.1208 24.6893 19.3185 23.9625 19.2486C23.2356 19.1788 22.5592 18.8463 22.06 18.3134L18.91 20.0309C19.0309 20.5119 19.0309 21.0154 18.91 21.4964L22.0593 23.2139C22.5585 22.681 23.2349 22.3485 23.9617 22.2786C24.6885 22.2088 25.4159 22.4065 26.0074 22.8345C26.599 23.2626 27.0141 23.8917 27.1749 24.604C27.3358 25.3162 27.2314 26.0627 26.8812 26.7034C26.5311 27.3442 25.9593 27.8353 25.273 28.0846C24.5867 28.3339 23.833 28.3244 23.1533 28.0578C22.4735 27.7912 21.9143 27.2858 21.5805 26.6364C21.2467 25.987 21.1612 25.2381 21.34 24.5301V24.5309ZM16 22.2636C16.3978 22.2636 16.7794 22.1056 17.0607 21.8243C17.342 21.543 17.5 21.1615 17.5 20.7636C17.5 20.3658 17.342 19.9843 17.0607 19.703C16.7794 19.4217 16.3978 19.2636 16 19.2636C15.6022 19.2636 15.2206 19.4217 14.9393 19.703C14.658 19.9843 14.5 20.3658 14.5 20.7636C14.5 21.1615 14.658 21.543 14.9393 21.8243C15.2206 22.1056 15.6022 22.2636 16 22.2636ZM24.25 17.7636C24.6478 17.7636 25.0294 17.6056 25.3107 17.3243C25.592 17.043 25.75 16.6615 25.75 16.2636C25.75 15.8658 25.592 15.4843 25.3107 15.203C25.0294 14.9217 24.6478 14.7636 24.25 14.7636C23.8522 14.7636 23.4706 14.9217 23.1893 15.203C22.908 15.4843 22.75 15.8658 22.75 16.2636C22.75 16.6615 22.908 17.043 23.1893 17.3243C23.4706 17.6056 23.8522 17.7636 24.25 17.7636ZM24.25 26.7636C24.6478 26.7636 25.0294 26.6056 25.3107 26.3243C25.592 26.043 25.75 25.6615 25.75 25.2636C25.75 24.8658 25.592 24.4843 25.3107 24.203C25.0294 23.9217 24.6478 23.7636 24.25 23.7636C23.8522 23.7636 23.4706 23.9217 23.1893 24.203C22.908 24.4843 22.75 24.8658 22.75 25.2636C22.75 25.6615 22.908 26.043 23.1893 26.3243C23.4706 26.6056 23.8522 26.7636 24.25 26.7636Z" fill="#6D00C0"/>
</g>
<defs>
<clipPath id="clip0_1_95">
<rect width="18" height="18" fill="white" transform="translate(11.5 11.7636)"/>
</clipPath>
</defs>
</svg>
