<svg width="25" height="25" viewBox="0 0 25 25" fill="none" xmlns="http://www.w3.org/2000/svg">
<g clip-path="url(#clip0_1_15)">
<path d="M19.3348 10.841C18.7584 10.7862 18.1837 10.9766 17.7579 11.3637C17.7054 11.4115 17.6555 11.4619 17.6085 11.5145C17.2895 10.919 16.7025 10.4917 16.0173 10.4263C15.441 10.3715 14.8662 10.5619 14.4405 10.949C14.3879 10.9968 14.338 11.0472 14.291 11.0998C14.0125 10.58 13.5298 10.1884 12.9558 10.0538C13.9506 9.06479 14.5476 7.70064 14.5476 6.244C14.5475 3.28577 12.1408 0.879028 9.18251 0.879028C6.22423 0.879028 3.81754 3.28577 3.81754 6.24405C3.81754 8.41445 5.14194 10.3805 7.13501 11.2042V13.5083L5.64116 14.5754C4.75606 15.2077 4.3925 16.3258 4.73647 17.3576L6.2098 21.7777C6.82822 23.6327 8.55739 24.8791 10.5127 24.8791H16.6469C19.1478 24.8791 21.1825 22.8444 21.1825 20.3435V12.9503C21.1825 11.8663 20.3709 10.9399 19.3348 10.841ZM4.59505 6.24405C4.59505 3.71454 6.653 1.65659 9.18251 1.65659C11.712 1.65659 13.77 3.71454 13.77 6.24405C13.77 7.99005 12.7677 9.58112 11.23 10.35V9.33348C12.2585 8.65009 12.8888 7.48661 12.8888 6.24405C12.8888 4.20044 11.2261 2.53779 9.18251 2.53779C7.1389 2.53779 5.47625 4.20044 5.47625 6.24405C5.47625 7.48652 6.10653 8.65004 7.13501 9.33348V10.35C5.59742 9.58112 4.59505 7.99 4.59505 6.24405ZM9.38229 4.20612C8.80592 4.15118 8.23123 4.34158 7.80551 4.72872C7.37942 5.11615 7.13501 5.66847 7.13501 6.24405V8.33673C6.58006 7.79177 6.25381 7.03834 6.25381 6.24405C6.25381 4.62916 7.56762 3.31535 9.18251 3.31535C10.7974 3.31535 12.1112 4.62916 12.1112 6.24405C12.1112 7.03844 11.785 7.79181 11.23 8.33678V6.31539C11.2301 5.23136 10.4185 4.30483 9.38229 4.20612ZM16.6469 24.1015H10.5127C8.8925 24.1015 7.45976 23.0688 6.94742 21.5318L5.47409 17.1117C5.23869 16.4057 5.48745 15.6407 6.09308 15.2082L7.13501 14.4639V17.8554C7.13501 18.0701 7.30901 18.2442 7.52379 18.2442C7.73853 18.2442 7.91257 18.0701 7.91257 17.8554V6.24405C7.91257 5.887 8.06422 5.54435 8.32854 5.30407C8.59648 5.06046 8.94476 4.94538 9.30851 4.98016C9.95004 5.04129 10.4525 5.62778 10.4525 6.31535V14.5378C10.4525 14.7525 10.6265 14.9266 10.8413 14.9266C11.0561 14.9266 11.2301 14.7525 11.2301 14.5378V12.0497C11.2301 11.6926 11.3817 11.35 11.6461 11.1097C11.914 10.8661 12.2619 10.7508 12.626 10.7858C13.2675 10.847 13.77 11.4335 13.77 12.121V12.4644V14.9525C13.77 15.1672 13.944 15.3413 14.1588 15.3413C14.3736 15.3413 14.5476 15.1673 14.5476 14.9525V12.4644C14.5476 12.1074 14.6992 11.7647 14.9635 11.5244C15.2314 11.2809 15.5793 11.1655 15.9435 11.2005C16.585 11.2617 17.0875 11.8482 17.0875 12.5357V12.879V15.3671C17.0875 15.5818 17.2615 15.7559 17.4763 15.7559C17.6911 15.7559 17.8651 15.5819 17.8651 15.3671V12.879C17.8651 12.522 18.0167 12.1793 18.281 11.939C18.5489 11.6955 18.8968 11.5801 19.261 11.6151C19.9025 11.6763 20.405 12.2628 20.405 12.9503V20.3434H20.4051C20.405 22.4156 18.7191 24.1015 16.6469 24.1015Z" fill="white"/>
</g>
<defs>
<clipPath id="clip0_1_15">
<rect width="24" height="24" fill="white" transform="translate(0.5 0.879028)"/>
</clipPath>
</defs>
</svg>
