<svg width="18" height="24" viewBox="0 0 18 24" fill="none" xmlns="http://www.w3.org/2000/svg">
<path d="M15.8348 9.962C15.2584 9.90715 14.6837 10.0976 14.2579 10.4847C14.2054 10.5325 14.1555 10.5829 14.1085 10.6354C13.7895 10.0399 13.2025 9.61268 12.5173 9.54729C11.941 9.49245 11.3662 9.68286 10.9405 10.07C10.8879 10.1178 10.838 10.1682 10.791 10.2207C10.5125 9.70095 10.0298 9.30936 9.4558 9.17473C10.4506 8.18577 11.0476 6.82161 11.0476 5.36497C11.0475 2.40675 8.64079 0 5.68251 0C2.72423 0 0.317535 2.40675 0.317535 5.36502C0.317535 7.53542 1.64194 9.50145 3.63501 10.3252V12.6293L2.14116 13.6964C1.25606 14.3286 0.892503 15.4467 1.23647 16.4785L2.7098 20.8987C3.32822 22.7537 5.05739 24 7.01273 24H13.1469C15.6478 24 17.6825 21.9654 17.6825 19.4644V12.0713C17.6825 10.9873 16.8709 10.0609 15.8348 9.962ZM1.09505 5.36502C1.09505 2.83551 3.153 0.777561 5.68251 0.777561C8.21202 0.777561 10.27 2.83551 10.27 5.36502C10.27 7.11102 9.26769 8.70209 7.73001 9.47098V8.45445C8.75854 7.77106 9.38877 6.60758 9.38877 5.36502C9.38877 3.32142 7.72612 1.65876 5.68251 1.65876C3.6389 1.65876 1.97625 3.32142 1.97625 5.36502C1.97625 6.60749 2.60653 7.77102 3.63501 8.45445V9.47098C2.09742 8.70209 1.09505 7.11097 1.09505 5.36502ZM5.88229 3.32709C5.30592 3.27215 4.73123 3.46256 4.30551 3.8497C3.87942 4.23712 3.63501 4.78944 3.63501 5.36502V7.45771C3.08006 6.91274 2.75381 6.15932 2.75381 5.36502C2.75381 3.75013 4.06762 2.43632 5.68251 2.43632C7.2974 2.43632 8.61121 3.75013 8.61121 5.36502C8.61121 6.15941 8.28496 6.91278 7.73001 7.45775V5.43636C7.73005 4.35234 6.91846 3.42581 5.88229 3.32709ZM13.1469 23.2224H7.01268C5.3925 23.2224 3.95976 22.1898 3.44742 20.6528L1.97409 16.2327C1.73869 15.5267 1.98745 14.7617 2.59308 14.3291L3.63501 13.5849V16.9764C3.63501 17.191 3.80901 17.3651 4.02379 17.3651C4.23853 17.3651 4.41257 17.1911 4.41257 16.9764V5.36502C4.41257 5.00798 4.56422 4.66532 4.82854 4.42504C5.09648 4.18143 5.44476 4.06635 5.80851 4.10113C6.45004 4.16226 6.95254 4.74876 6.95254 5.43632V13.6588C6.95254 13.8735 7.12654 14.0476 7.34132 14.0476C7.55605 14.0476 7.7301 13.8735 7.7301 13.6588V11.1707C7.7301 10.8136 7.88174 10.471 8.14607 10.2307C8.41396 9.98712 8.76186 9.87176 9.12603 9.90678C9.76752 9.96795 10.27 10.5544 10.27 11.242V11.5854V14.0735C10.27 14.2882 10.444 14.4623 10.6588 14.4623C10.8736 14.4623 11.0476 14.2882 11.0476 14.0735V11.5854C11.0476 11.2283 11.1992 10.8857 11.4635 10.6454C11.7314 10.4018 12.0793 10.2865 12.4435 10.3215C13.085 10.3827 13.5875 10.9692 13.5875 11.6567V12V14.4881C13.5875 14.7028 13.7615 14.8769 13.9763 14.8769C14.1911 14.8769 14.3651 14.7028 14.3651 14.4881V12C14.3651 11.6429 14.5167 11.3003 14.781 11.06C15.0489 10.8164 15.3968 10.7011 15.761 10.7361C16.4025 10.7973 16.905 11.3838 16.905 12.0713V19.4643H16.9051C16.905 21.5366 15.2191 23.2224 13.1469 23.2224Z" fill="#808080"/>
</svg>
